' Copyright (C) 2022 - present Gruppe 2, Hochschule Karlsruhe
'
' This program is free software: you can redistribute it and/or modify
' it under the terms of the GNU General Public License as published by
' the Free Software Foundation, either version 3 of the License, or
' (at your option) any later version.
'
' This program is distributed in the hope that it will be useful,
' but WITHOUT ANY WARRANTY; without even the implied warranty of
' MERCHANTABILITY or FITNESS FOR A PARTICULAR PURPOSE.  See the
' GNU General Public License for more details.
'
' You should have received a copy of the GNU General Public License
' along with this program.  If not, see <https://www.gnu.org/licenses/>.

' Preview durch <Alt>d

@startuml Anwendungskern

interface Promise<T>

package @nestjs/common {
  class "@Injectable" as Injectable
  hide Injectable circle
}

package typeorm {
  class Repository<T>
}

package @nestjs/typeorm {
  class "@InjectRepository" as InjectRepository
  hide InjectRepository circle
}

package computer {
  package entity {
    class Computer
  }

  package service #DDDDDD {
    class QueryBuilder

    class ComputerReadService << control >> <<@Injectable()>> {
      + async findById(id: string): Promise<BComputer | undefined>
      + async find(suchkriterien?: Record<string, any>): Promise<Computer[]>
    }

    ComputerReadService o--> "1" QueryBuilder: queryBuilder
    ComputerReadService o--> "1" Repository: @InjectRepository repo

    ComputerReadService .up.> Injectable
    ComputerReadService .up.> InjectRepository

    ComputerReadService .up.> Promise
    ComputerReadService ..> Computer

    QueryBuilder .[hidden].> Repository
    QueryBuilder .[hidden].> Computer
  }
}

hide empty members

footer (c) Gruppe 2

@enduml
